<mxfile host="app.diagrams.net" modified="2021-12-23T04:25:45.008Z" agent="5.0 (Windows NT 10.0) AppleWebKit/537.36 (KHTML, like Gecko) Chrome/94.0.4606.85 YaBrowser/21.11.2.777 Yowser/2.5 Safari/537.36" etag="4wnLoP9gfHJQzVn1Bw4h" version="16.0.3" type="github">
  <diagram id="kgpKYQtTHZ0yAKxKKP6v" name="Page-1">
    <mxGraphModel dx="1570" dy="439" grid="1" gridSize="10" guides="1" tooltips="1" connect="1" arrows="1" fold="1" page="1" pageScale="1" pageWidth="850" pageHeight="1100" math="0" shadow="0">
      <root>
        <mxCell id="0" />
        <mxCell id="1" parent="0" />
        <mxCell id="3nuBFxr9cyL0pnOWT2aG-1" value="Aviagregator" style="shape=umlLifeline;perimeter=lifelinePerimeter;container=1;collapsible=0;recursiveResize=0;rounded=0;shadow=0;strokeWidth=1;" parent="1" vertex="1">
          <mxGeometry x="120" y="80" width="100" height="480" as="geometry" />
        </mxCell>
        <mxCell id="7u0CSYYLVKe7ubRiZnHP-8" value="" style="html=1;points=[];perimeter=orthogonalPerimeter;" vertex="1" parent="3nuBFxr9cyL0pnOWT2aG-1">
          <mxGeometry x="45" y="80" width="10" height="400" as="geometry" />
        </mxCell>
        <mxCell id="7u0CSYYLVKe7ubRiZnHP-9" value="данные для поиска билета" style="html=1;verticalAlign=bottom;endArrow=block;entryX=0;entryY=0;rounded=0;" edge="1" target="7u0CSYYLVKe7ubRiZnHP-8" parent="3nuBFxr9cyL0pnOWT2aG-1">
          <mxGeometry relative="1" as="geometry">
            <mxPoint x="-80" y="80" as="sourcePoint" />
          </mxGeometry>
        </mxCell>
        <mxCell id="7u0CSYYLVKe7ubRiZnHP-10" value="результаты поиска" style="html=1;verticalAlign=bottom;endArrow=open;dashed=1;endSize=8;rounded=0;" edge="1" source="7u0CSYYLVKe7ubRiZnHP-8" parent="3nuBFxr9cyL0pnOWT2aG-1">
          <mxGeometry relative="1" as="geometry">
            <mxPoint x="-80" y="203" as="targetPoint" />
          </mxGeometry>
        </mxCell>
        <mxCell id="7u0CSYYLVKe7ubRiZnHP-11" value="" style="html=1;points=[];perimeter=orthogonalPerimeter;fontSize=10;" vertex="1" parent="3nuBFxr9cyL0pnOWT2aG-1">
          <mxGeometry x="55" y="100" width="10" height="40" as="geometry" />
        </mxCell>
        <mxCell id="7u0CSYYLVKe7ubRiZnHP-12" value="Выбор&amp;nbsp; авиакомпаний&amp;nbsp;&lt;br&gt;для запроса рейсов из&lt;br&gt;внутренней бд" style="edgeStyle=orthogonalEdgeStyle;html=1;align=left;spacingLeft=2;endArrow=block;rounded=0;entryX=1;entryY=0;fontSize=10;" edge="1" target="7u0CSYYLVKe7ubRiZnHP-11" parent="3nuBFxr9cyL0pnOWT2aG-1">
          <mxGeometry relative="1" as="geometry">
            <mxPoint x="60" y="80" as="sourcePoint" />
            <Array as="points">
              <mxPoint x="90" y="80" />
            </Array>
          </mxGeometry>
        </mxCell>
        <mxCell id="7u0CSYYLVKe7ubRiZnHP-17" value="Выбор рейса" style="html=1;verticalAlign=bottom;endArrow=block;entryX=0;entryY=0;rounded=0;fontSize=10;" edge="1" parent="3nuBFxr9cyL0pnOWT2aG-1">
          <mxGeometry relative="1" as="geometry">
            <mxPoint x="-80" y="230" as="sourcePoint" />
            <mxPoint x="45" y="230.0000000000001" as="targetPoint" />
          </mxGeometry>
        </mxCell>
        <mxCell id="3nuBFxr9cyL0pnOWT2aG-5" value="Сервис&#xa;оплаты" style="shape=umlLifeline;perimeter=lifelinePerimeter;container=1;collapsible=0;recursiveResize=0;rounded=0;shadow=0;strokeWidth=1;" parent="1" vertex="1">
          <mxGeometry x="440" y="80" width="100" height="470" as="geometry" />
        </mxCell>
        <mxCell id="7u0CSYYLVKe7ubRiZnHP-1" value="Сервис &#xa;авиакомпании" style="shape=umlLifeline;perimeter=lifelinePerimeter;container=1;collapsible=0;recursiveResize=0;rounded=0;shadow=0;strokeWidth=1;" vertex="1" parent="1">
          <mxGeometry x="280" y="80" width="100" height="480" as="geometry" />
        </mxCell>
        <mxCell id="7u0CSYYLVKe7ubRiZnHP-13" value="" style="html=1;points=[];perimeter=orthogonalPerimeter;fontSize=10;" vertex="1" parent="7u0CSYYLVKe7ubRiZnHP-1">
          <mxGeometry x="45" y="160" width="10" height="40" as="geometry" />
        </mxCell>
        <mxCell id="7u0CSYYLVKe7ubRiZnHP-19" value="" style="html=1;points=[];perimeter=orthogonalPerimeter;fontSize=10;" vertex="1" parent="7u0CSYYLVKe7ubRiZnHP-1">
          <mxGeometry x="45" y="240" width="10" height="90" as="geometry" />
        </mxCell>
        <mxCell id="7u0CSYYLVKe7ubRiZnHP-3" value="Пользователь" style="shape=umlActor;verticalLabelPosition=bottom;verticalAlign=top;html=1;outlineConnect=0;" vertex="1" parent="1">
          <mxGeometry x="20" y="60" width="30" height="60" as="geometry" />
        </mxCell>
        <mxCell id="7u0CSYYLVKe7ubRiZnHP-6" value="" style="endArrow=none;dashed=1;endFill=0;html=1;rounded=0;" edge="1" parent="1">
          <mxGeometry width="160" relative="1" as="geometry">
            <mxPoint x="40" y="140" as="sourcePoint" />
            <mxPoint x="40" y="650" as="targetPoint" />
          </mxGeometry>
        </mxCell>
        <mxCell id="7u0CSYYLVKe7ubRiZnHP-14" value="Запрос данных по билетам&lt;br&gt;Get api/flightInfo" style="html=1;verticalAlign=bottom;endArrow=block;entryX=0;entryY=0;rounded=0;fontSize=10;" edge="1" target="7u0CSYYLVKe7ubRiZnHP-13" parent="1">
          <mxGeometry relative="1" as="geometry">
            <mxPoint x="180" y="240" as="sourcePoint" />
          </mxGeometry>
        </mxCell>
        <mxCell id="7u0CSYYLVKe7ubRiZnHP-15" value="Результаты поиска&lt;br&gt;200 ОК" style="html=1;verticalAlign=bottom;endArrow=open;dashed=1;endSize=8;exitX=0;exitY=0.95;rounded=0;fontSize=10;" edge="1" source="7u0CSYYLVKe7ubRiZnHP-13" parent="1">
          <mxGeometry relative="1" as="geometry">
            <mxPoint x="180" y="278" as="targetPoint" />
          </mxGeometry>
        </mxCell>
        <mxCell id="7u0CSYYLVKe7ubRiZnHP-20" value="Запрос подробной информации &lt;br&gt;о рейсе,в т.ч &lt;br&gt;для проведения оплаты&lt;br&gt;Get api/flight{id}" style="html=1;verticalAlign=bottom;endArrow=classic;entryX=0.056;entryY=0.092;rounded=0;fontSize=10;shadow=1;sketch=0;entryDx=0;entryDy=0;entryPerimeter=0;endFill=1;labelBackgroundColor=none;" edge="1" target="7u0CSYYLVKe7ubRiZnHP-19" parent="1">
          <mxGeometry x="-0.0364" y="-53" relative="1" as="geometry">
            <mxPoint x="180" y="327" as="sourcePoint" />
            <mxPoint x="325" y="362.0000000000001" as="targetPoint" />
            <mxPoint as="offset" />
          </mxGeometry>
        </mxCell>
        <mxCell id="7u0CSYYLVKe7ubRiZnHP-21" value="200 OK" style="html=1;verticalAlign=bottom;endArrow=open;dashed=1;endSize=8;rounded=0;fontSize=10;exitX=0.056;exitY=0.896;exitDx=0;exitDy=0;exitPerimeter=0;" edge="1" source="7u0CSYYLVKe7ubRiZnHP-19" parent="1" target="3nuBFxr9cyL0pnOWT2aG-1">
          <mxGeometry relative="1" as="geometry">
            <mxPoint x="170" y="400" as="targetPoint" />
            <mxPoint x="320" y="400" as="sourcePoint" />
          </mxGeometry>
        </mxCell>
        <mxCell id="7u0CSYYLVKe7ubRiZnHP-24" value="" style="html=1;points=[];perimeter=orthogonalPerimeter;fontSize=10;" vertex="1" parent="1">
          <mxGeometry x="36" y="454" width="10" height="60" as="geometry" />
        </mxCell>
        <mxCell id="7u0CSYYLVKe7ubRiZnHP-25" value="Запрос данных&lt;br&gt;аутентификации" style="html=1;verticalAlign=bottom;endArrow=block;entryX=1.2;entryY=0.061;rounded=0;shadow=1;labelBackgroundColor=none;sketch=0;fontSize=10;entryDx=0;entryDy=0;entryPerimeter=0;exitX=0.033;exitY=0.744;exitDx=0;exitDy=0;exitPerimeter=0;" edge="1" target="7u0CSYYLVKe7ubRiZnHP-24" parent="1" source="7u0CSYYLVKe7ubRiZnHP-8">
          <mxGeometry relative="1" as="geometry">
            <mxPoint x="160" y="341" as="sourcePoint" />
            <mxPoint x="46" y="402" as="targetPoint" />
          </mxGeometry>
        </mxCell>
        <mxCell id="7u0CSYYLVKe7ubRiZnHP-26" value="Данные &lt;br&gt;аутентификации" style="html=1;verticalAlign=bottom;endArrow=open;dashed=1;endSize=8;exitX=1;exitY=0.95;rounded=0;shadow=1;labelBackgroundColor=none;sketch=0;fontSize=10;" edge="1" source="7u0CSYYLVKe7ubRiZnHP-24" parent="1" target="3nuBFxr9cyL0pnOWT2aG-1">
          <mxGeometry relative="1" as="geometry">
            <mxPoint x="160" y="396" as="targetPoint" />
          </mxGeometry>
        </mxCell>
        <mxCell id="7u0CSYYLVKe7ubRiZnHP-27" value="Сервис &#xa;авторизации" style="shape=umlLifeline;perimeter=lifelinePerimeter;container=1;collapsible=0;recursiveResize=0;rounded=0;shadow=0;strokeWidth=1;" vertex="1" parent="1">
          <mxGeometry x="584" y="80" width="100" height="470" as="geometry" />
        </mxCell>
        <mxCell id="7u0CSYYLVKe7ubRiZnHP-30" value=".Оплата" style="html=1;verticalAlign=bottom;endArrow=block;rounded=0;shadow=1;labelBackgroundColor=none;sketch=0;fontSize=10;" edge="1" target="3nuBFxr9cyL0pnOWT2aG-1" parent="1">
          <mxGeometry relative="1" as="geometry">
            <mxPoint x="40" y="420" as="sourcePoint" />
            <mxPoint x="-40" y="450.0000000000001" as="targetPoint" />
          </mxGeometry>
        </mxCell>
      </root>
    </mxGraphModel>
  </diagram>
</mxfile>
